# xmcd CD database file
#
# Track frame offsets:
#	150
#	22060
#	43517
#	57905
#	79775
#	100402
#	113307
#	137050
#	152767
#	173862
#	194490
#	214790
#	236225
#	263250
#	298522
#	322557
#	340022
#
# Disc length: 4738 seconds
#
# Revision: 1
# Processed by: cddbd v1.5.2PL0 Copyright (c) Steve Scherf et al.
# Submitted via: CDex 1.70beta2
#
DISCID=e3128011
DTITLE=甲斐よしひろ - SinglesII [Disc 2]
DYEAR=2000
DGENRE=Rock
TTITLE0=レイニー・ドライヴ
TTITLE1=エコーズ・オブ・ラヴ
TTITLE2=メガロポリス・ノクターン （KAI VOCAL VERSION)
TTITLE3=レイニー・ドライヴ (BALLADE VERSION) （KAI VOCAL)
TTITLE4=電光石火BABY
TTITLE5=夜にもつれて
TTITLE6=レイン
TTITLE7=スロー・キス
TTITLE8=I.L.Y.V.M.
TTITLE9=I.L.Y.V.M. No.3
TTITLE10=ミッドナイト・プラスワン
TTITLE11=レッドスター
TTITLE12=スウィート・スムース・ステイトメント
TTITLE13=ナイト・ウェイブ～破れたハートを売り物に （LIVE)
TTITLE14=NIGHT TRIPPER
TTITLE15=TWO MOON JUNCTION (NIGHT TRIPPER REPRISE) （フルバージョン）
TTITLE16=別離(わかれ)の黄昏
EXTD=YEAR: 2000
EXTT0=
EXTT1=
EXTT2=
EXTT3=
EXTT4=
EXTT5=
EXTT6=
EXTT7=
EXTT8=
EXTT9=
EXTT10=
EXTT11=
EXTT12=
EXTT13=
EXTT14=
EXTT15=
EXTT16=
PLAYORDER=
